<svg xmlns="http://www.w3.org/2000/svg" viewBox="0 0 1200 514" fill="none">
  <defs>
    <linearGradient id="bg2" x1="0" y1="0" x2="1200" y2="514" gradientUnits="userSpaceOnUse">
      <stop offset="0%" stop-color="#0F172A"/>
      <stop offset="100%" stop-color="#1E293B"/>
    </linearGradient>
    <linearGradient id="glow2" x1="200" y1="0" x2="1000" y2="514" gradientUnits="userSpaceOnUse">
      <stop offset="0%" stop-color="#6366F1" stop-opacity="0.12"/>
      <stop offset="50%" stop-color="#10B981" stop-opacity="0.08"/>
      <stop offset="100%" stop-color="#F59E0B" stop-opacity="0.06"/>
    </linearGradient>
    <linearGradient id="green2" x1="0" y1="0" x2="1" y2="1">
      <stop offset="0%" stop-color="#10B981"/>
      <stop offset="100%" stop-color="#059669"/>
    </linearGradient>
    <linearGradient id="purple2" x1="0" y1="0" x2="1" y2="1">
      <stop offset="0%" stop-color="#6366F1"/>
      <stop offset="100%" stop-color="#4F46E5"/>
    </linearGradient>
  </defs>

  <!-- Background -->
  <rect width="1200" height="514" fill="url(#bg2)"/>
  <rect width="1200" height="514" fill="url(#glow2)"/>

  <!-- Subtle dot pattern -->
  <g opacity="0.04" fill="#94A3B8">
    <circle cx="30" cy="30" r="2"/><circle cx="90" cy="30" r="2"/><circle cx="150" cy="30" r="2"/><circle cx="210" cy="30" r="2"/><circle cx="270" cy="30" r="2"/><circle cx="330" cy="30" r="2"/><circle cx="390" cy="30" r="2"/><circle cx="450" cy="30" r="2"/><circle cx="510" cy="30" r="2"/><circle cx="570" cy="30" r="2"/><circle cx="630" cy="30" r="2"/><circle cx="690" cy="30" r="2"/><circle cx="750" cy="30" r="2"/><circle cx="810" cy="30" r="2"/><circle cx="870" cy="30" r="2"/><circle cx="930" cy="30" r="2"/><circle cx="990" cy="30" r="2"/><circle cx="1050" cy="30" r="2"/><circle cx="1110" cy="30" r="2"/><circle cx="1170" cy="30" r="2"/>
    <circle cx="30" cy="90" r="2"/><circle cx="90" cy="90" r="2"/><circle cx="150" cy="90" r="2"/><circle cx="210" cy="90" r="2"/><circle cx="270" cy="90" r="2"/><circle cx="330" cy="90" r="2"/><circle cx="390" cy="90" r="2"/><circle cx="450" cy="90" r="2"/><circle cx="510" cy="90" r="2"/><circle cx="570" cy="90" r="2"/><circle cx="630" cy="90" r="2"/><circle cx="690" cy="90" r="2"/><circle cx="750" cy="90" r="2"/><circle cx="810" cy="90" r="2"/><circle cx="870" cy="90" r="2"/><circle cx="930" cy="90" r="2"/><circle cx="990" cy="90" r="2"/><circle cx="1050" cy="90" r="2"/><circle cx="1110" cy="90" r="2"/><circle cx="1170" cy="90" r="2"/>
    <circle cx="30" cy="150" r="2"/><circle cx="90" cy="150" r="2"/><circle cx="150" cy="150" r="2"/><circle cx="210" cy="150" r="2"/><circle cx="270" cy="150" r="2"/><circle cx="330" cy="150" r="2"/><circle cx="390" cy="150" r="2"/><circle cx="450" cy="150" r="2"/><circle cx="510" cy="150" r="2"/><circle cx="570" cy="150" r="2"/><circle cx="630" cy="150" r="2"/><circle cx="690" cy="150" r="2"/><circle cx="750" cy="150" r="2"/><circle cx="810" cy="150" r="2"/><circle cx="870" cy="150" r="2"/><circle cx="930" cy="150" r="2"/><circle cx="990" cy="150" r="2"/><circle cx="1050" cy="150" r="2"/><circle cx="1110" cy="150" r="2"/><circle cx="1170" cy="150" r="2"/>
    <circle cx="30" cy="210" r="2"/><circle cx="90" cy="210" r="2"/><circle cx="150" cy="210" r="2"/><circle cx="210" cy="210" r="2"/><circle cx="270" cy="210" r="2"/><circle cx="330" cy="210" r="2"/><circle cx="390" cy="210" r="2"/><circle cx="450" cy="210" r="2"/><circle cx="510" cy="210" r="2"/><circle cx="570" cy="210" r="2"/><circle cx="630" cy="210" r="2"/><circle cx="690" cy="210" r="2"/><circle cx="750" cy="210" r="2"/><circle cx="810" cy="210" r="2"/><circle cx="870" cy="210" r="2"/><circle cx="930" cy="210" r="2"/><circle cx="990" cy="210" r="2"/><circle cx="1050" cy="210" r="2"/><circle cx="1110" cy="210" r="2"/><circle cx="1170" cy="210" r="2"/>
    <circle cx="30" cy="270" r="2"/><circle cx="90" cy="270" r="2"/><circle cx="150" cy="270" r="2"/><circle cx="210" cy="270" r="2"/><circle cx="270" cy="270" r="2"/><circle cx="330" cy="270" r="2"/><circle cx="390" cy="270" r="2"/><circle cx="450" cy="270" r="2"/><circle cx="510" cy="270" r="2"/><circle cx="570" cy="270" r="2"/><circle cx="630" cy="270" r="2"/><circle cx="690" cy="270" r="2"/><circle cx="750" cy="270" r="2"/><circle cx="810" cy="270" r="2"/><circle cx="870" cy="270" r="2"/><circle cx="930" cy="270" r="2"/><circle cx="990" cy="270" r="2"/><circle cx="1050" cy="270" r="2"/><circle cx="1110" cy="270" r="2"/><circle cx="1170" cy="270" r="2"/>
  </g>

  <!-- Decorative blurs -->
  <circle cx="300" cy="250" r="200" fill="#6366F1" opacity="0.06"/>
  <circle cx="900" cy="200" r="180" fill="#10B981" opacity="0.05"/>

  <!-- SaaS box (left) — generic, rigid -->
  <g transform="translate(280, 120)">
    <rect width="200" height="260" rx="12" fill="#1E293B" stroke="#334155" stroke-width="2"/>
    <rect x="20" y="20" width="160" height="24" rx="4" fill="#334155"/>
    <rect x="20" y="56" width="120" height="10" rx="2" fill="#334155" opacity="0.6"/>
    <rect x="20" y="76" width="160" height="10" rx="2" fill="#334155" opacity="0.4"/>
    <rect x="20" y="96" width="140" height="10" rx="2" fill="#334155" opacity="0.4"/>
    <rect x="20" y="126" width="160" height="80" rx="6" fill="#334155" opacity="0.3"/>
    <!-- Lock icon -->
    <g transform="translate(80, 148)">
      <rect x="-12" y="0" width="24" height="18" rx="3" fill="#94A3B8" opacity="0.4"/>
      <path d="M-6,-8 L-6,-4 A6,6 0 0,1 6,-4 L6,-8" fill="none" stroke="#94A3B8" stroke-width="2" opacity="0.4"/>
    </g>
    <rect x="20" y="226" width="70" height="24" rx="4" fill="#334155"/>
    <text x="100" y="300" text-anchor="middle" font-family="system-ui, sans-serif" font-size="13" fill="#94A3B8" opacity="0.6">SaaS</text>
  </g>

  <!-- Arrow -->
  <g transform="translate(530, 230)">
    <text x="0" y="0" text-anchor="middle" font-family="system-ui, sans-serif" font-size="14" fill="#94A3B8" opacity="0.5">vs</text>
    <line x1="-30" y1="20" x2="30" y2="20" stroke="#94A3B8" stroke-width="1" opacity="0.3"/>
  </g>

  <!-- Custom software box (right) — tailored, flexible -->
  <g transform="translate(610, 120)">
    <rect width="200" height="260" rx="12" fill="#1E293B" stroke="#10B981" stroke-width="2" opacity="0.8"/>
    <rect x="20" y="20" width="160" height="24" rx="4" fill="#10B981" opacity="0.15"/>
    <rect x="20" y="56" width="120" height="10" rx="2" fill="#10B981" opacity="0.2"/>
    <rect x="20" y="76" width="160" height="10" rx="2" fill="#10B981" opacity="0.12"/>
    <rect x="20" y="96" width="140" height="10" rx="2" fill="#10B981" opacity="0.12"/>
    <!-- Code block -->
    <rect x="20" y="126" width="160" height="80" rx="6" fill="#0F172A" stroke="#10B981" stroke-width="1" opacity="0.6"/>
    <g transform="translate(34, 142)" opacity="0.7">
      <rect width="50" height="6" rx="1" fill="#10B981" opacity="0.6"/>
      <rect y="12" width="80" height="6" rx="1" fill="#6366F1" opacity="0.5"/>
      <rect y="24" x="10" width="60" height="6" rx="1" fill="#F59E0B" opacity="0.4"/>
      <rect y="36" width="70" height="6" rx="1" fill="#10B981" opacity="0.5"/>
      <rect y="48" width="40" height="6" rx="1" fill="#94A3B8" opacity="0.3"/>
    </g>
    <rect x="20" y="226" width="70" height="24" rx="4" fill="#10B981" opacity="0.2"/>
    <!-- Checkmark -->
    <g transform="translate(150, 234)">
      <circle r="10" fill="#10B981" opacity="0.2"/>
      <path d="M-4,0 L-1,3 L4,-3" fill="none" stroke="#10B981" stroke-width="2" stroke-linecap="round"/>
    </g>
    <text x="100" y="300" text-anchor="middle" font-family="system-ui, sans-serif" font-size="13" fill="#10B981" opacity="0.8">Custom</text>
  </g>

  <!-- Text -->
  <text x="600" y="440" text-anchor="middle" font-family="system-ui, sans-serif" font-size="20" font-weight="600" fill="#6366F1" letter-spacing="3" opacity="0.8">BUILD vs BUY</text>
  <text x="600" y="470" text-anchor="middle" font-family="system-ui, sans-serif" font-size="14" fill="#94A3B8" letter-spacing="1" opacity="0.6">Custom Software Decision Framework</text>

  <!-- Bottom accent -->
  <rect x="520" y="488" width="160" height="2" rx="1" fill="#6366F1" opacity="0.4"/>
</svg>
